019	Ripper ...........: IMAGiNE                                        IMDB Rating.......:4.4/10                            
020	Video Codec.......: XVID                                         Release Date......:07/07/10
021	Audio Codec.......:MP3                                           Theatre Date......:01/07/10
022	Audio Bitrate.....:128                                              Runtime.......:1h 34mn
023	Subtitles.........:NIL                                                 Language..........:ENGLISH
024	Resolution...... 688 x 288                                      IMDb URL..........:http://www.imdb.com/title/tt0938283/
025	 
026	 
027	[color=yellow]DETAILS:[/color]
028	 
029	Video
030	ID                               : 0
031	Format                           : MPEG-4 Visual
032	Format profile                   : Advanced Simple@L5
033	Format settings, BVOP            : Yes
034	Format settings, QPel            : No
035	Format settings, GMC             : No warppoints
036	Format settings, Matrix          : Default (MPEG)
037	Muxing mode                      : Packed bitstream
038	Codec ID                         : XVID
039	Codec ID/Hint                    : XviD
040	Duration                         : 1h 34mn
041	Bit rate                         : 1 933 Kbps
042	Width                            : 688 pixels
043	Height                           : 288 pixels
044	Display aspect ratio             : 2.35
045	Frame rate                       : 23.976 fps
046	Resolution                       : 24 bits
047	Colorimetry                      : 4:2:0
048	Scan type                        : Progressive
049	Bits/(Pixel*Frame)               : 0.407
050	Stream size                      : 1.28 GiB (93%)
051	Writing library                  : XviD 1.2.1 (UTC 2008-12-04)
052	 
053	Audio
054	ID                               : 1
055	Format                           : MPEG Audio
056	Format version                   : Version 1
057	Format profile                   : Layer 3
058	Codec ID                         : 55
059	Codec ID/Hint                    : MP3
060	Duration                         : 1h 34mn
061	Bit rate mode                    : Constant
062	Bit rate                         : 128 Kbps
063	Channel(s)                       : 2 channels
064	Sampling rate                    : 44.1 KHz
065	Resolution                       : 16 bits
066	Stream size                      : 86.7 MiB (6%)
067	Alignment                        : Split accross interleaves
068	Interleave, duration             : 42 ms (1.00 video frame)
069	Interleave, preload duration     : 500 ms
070	 
071	 
072	[color=yellow]NOTES:[/color]
073	 
074	IMAGiNE bringing you another release.....The Last Airbender
075	 
076	Right sourced used was a dvdr we were sent from a special friend ....cheers m8ty ;-)
077	Now the vobs themselfs had the interlace issues like with kingdoms release,and whilst you cam make it better
078	we can't see anyway to remove them.......guessing the original files off the camera were encoded bad so :(
079	Anyway work done......first thing was cut the film up to 10 parts where there was some major camera movement and then
080	crop them all differently and then resize them the same,so yes a few parts the AR will be off slightly.
081	Some parts we used a quad filter as the borders were at an angle so this allowed us to crop it without losing any footage :)
082	Once done it was a case of adding our normal filters to ....messing with the chroma,rgb colours,brightness etc...... and then
083	encoding each part on their own and then join them together afterwards :)
084	The audio on the dvdr was some nice AC3 cam audio so we just encoded it to mp3 for this xvid release.
085	 
086	Anyway enjoy :)
087	 
088	 
089	[color=yellow]SCREENS:[/color]
090	 
             http://imagine.takagari.com/airbender/vlcsnap-505401.png
             http://imagine.takagari.com/airbender/vlcsnap-505864.png
             http://imagine.takagari.com/airbender/vlcsnap-506395.png
             http://imagine.takagari.com/airbender/vlcsnap-507048.png
             http://imagine.takagari.com/airbender/vlcsnap-507287.png
096	 
097	 
098	[color=yellow]GREETS:[/color]
099	 
100	FLAWL3SS,ViSiON,FUSiON,Rx,SecretMyth,BirdFlu,ELEKTRI4KA and Autotron
101	And to all the other p2p grps past and present
102	 
103	Special thanks to Python-Lair for the server :)
104	And special thanks to supreme-speeds.com for the ripbox :)
105	Also to The Scene Nation for all their help :)
106	 
107	[COLOR=RED]Looking for these,syncers,cammers,silver supplier.....Have anything to offer????......
108	Contact us imaginegroup@hushmail.com[/COLOR]